<svg width="63" height="24" viewBox="0 0 63 24" fill="none" xmlns="http://www.w3.org/2000/svg">
<path d="M7.98335 18.6606L10.1309 12.6117L10.2475 12.2815H13.4953C15.9991 12.2815 16.4944 13.7267 16.4944 15.3608H16.914L19.392 7.93384H18.9723C17.9487 9.44644 16.5106 10.7959 14.0015 10.7959H10.7691L13.8721 2.01391H20.4383C24.6044 2.01391 25.1481 3.69029 25.1481 5.20841H25.5816L27.4032 0H7.02468V0.384387C8.73117 0.670913 9.82322 2.61529 9.0869 4.70237L4.19928 18.5418C3.4772 20.3827 1.27984 22.4726 0 22.7261V23.1104H10.1866V22.7261C8.93983 22.3294 7.27978 20.7987 7.98335 18.6606Z" fill="#1a1a18"/>
<path d="M60.3691 22.7718C59.863 22.5188 58.6453 21.3235 57.5184 18.8185C56.7336 17.2064 55.9068 15.6111 55.194 13.9653L56.127 12.6447C57.9267 10.1026 58.8434 8.92152 59.7863 8.72343V10.0005C60.2607 10.1488 60.7411 10.1457 61.0742 10.1435C61.1119 10.1433 61.1476 10.1431 61.1812 10.1431C62.4705 10.1431 63.0376 9.35072 62.9688 8.4263C62.8974 7.46887 62.0723 6.77555 60.9279 6.74254C59.5651 6.74254 58.3832 7.82454 56.6793 10.1686L54.7076 12.8926C53.7837 10.8548 52.8187 8.83774 51.9384 6.77985H47.3652V7.16424C48.5871 7.64494 49.6019 9.54641 50.4323 11.3571C51.0829 12.9106 51.7223 14.4684 52.3997 16.0122L51.1353 17.8281C49.5497 20.1054 48.419 21.1295 47.476 21.3276V20.1391C46.948 19.974 46.4126 19.908 46.0811 19.908C44.7919 19.908 44.2247 20.7004 44.2936 21.6248C44.3434 22.2943 44.762 22.8347 45.4006 23.1104C45.6751 23.229 45.9903 23.2986 46.3344 23.3085C46.7302 23.3085 47.1279 23.25 47.5338 23.1104C48.5257 22.7694 49.7184 21.4898 50.583 20.3042L52.9162 17.1179C53.8536 19.125 55.7967 23.0334 55.8361 23.1104H60.3691V22.7718Z" fill="#1a1a18"/>
<path d="M25.8808 19.8798C25.1853 21.9436 26.7254 21.4108 28.8871 20.1384C28.9157 20.3343 28.9522 20.5266 28.9962 20.715C27.0017 22.118 25.158 23.3085 23.5131 23.3085C21.9853 23.3085 21.6083 22.3294 22.6909 19.3467L29.3293 0H32.7021L25.8808 19.8798Z" fill="#1a1a18"/>
<path fill-rule="evenodd" clip-rule="evenodd" d="M43.6664 19.2577C42.2913 22.0448 39.9861 23.267 37.2803 23.3312C33.6604 23.417 31.0423 21.0197 30.7076 17.6174C30.2249 12.7101 33.9599 6.2008 39.4192 6.2008C42.7329 6.2008 44.2855 7.60882 44.3282 9.40884L44.3282 9.40936C44.3757 11.4339 41.7611 13.019 36.6101 16.1418L36.6099 16.1418C35.9225 16.5586 35.1898 17.0028 34.4123 17.479C34.4657 17.8358 34.5279 18.1672 34.6043 18.4732C35.111 20.2951 36.1896 21.2912 38.9058 21.2268C40.6243 21.186 42.0589 20.2487 43.4132 18.741L43.6664 19.2577ZM41.2592 10.3569C41.2382 9.46759 40.5903 8.6657 39.5423 8.69055C35.8491 8.77812 34.0085 13.5332 34.285 16.6892C34.539 16.5206 34.8556 16.32 35.2127 16.0938C37.4576 14.6716 41.3038 12.2349 41.2592 10.3569Z" fill="#1a1a18"/>
</svg>
